<?xml version="1.0" encoding="UTF-8" standalone="no"?>
<!DOCTYPE svg PUBLIC "-//W3C//DTD SVG 1.1//EN"
 "http://www.w3.org/Graphics/SVG/1.1/DTD/svg11.dtd">
<!-- Generated by graphviz version 2.42.3 (20191010.1750)
 -->
<!-- Title: finite_state_machine Pages: 1 -->
<svg width="534pt" height="155pt"
 viewBox="0.00 0.00 534.00 155.00" xmlns="http://www.w3.org/2000/svg" xmlns:xlink="http://www.w3.org/1999/xlink">
<g id="graph0" class="graph" transform="scale(1 1) rotate(0) translate(4 151)">
<title>finite_state_machine</title>
<polygon fill="white" stroke="transparent" points="-4,4 -4,-151 530,-151 530,4 -4,4"/>
<!-- 2 -->
<g id="node1" class="node">
<title>2</title>
<ellipse fill="none" stroke="black" cx="263" cy="-18" rx="27" ry="18"/>
<text text-anchor="middle" x="263" y="-14.3" font-family="Times,serif" font-size="14.00">2</text>
</g>
<!-- 4 -->
<g id="node2" class="node">
<title>4</title>
<ellipse fill="none" stroke="black" cx="378" cy="-77" rx="27" ry="18"/>
<text text-anchor="middle" x="378" y="-73.3" font-family="Times,serif" font-size="14.00">4</text>
</g>
<!-- 2&#45;&gt;4 -->
<g id="edge1" class="edge">
<title>2&#45;&gt;4</title>
<path fill="none" stroke="black" d="M288.1,-24.71C301.73,-28.99 318.82,-35.2 333,-43 339.86,-46.77 346.79,-51.57 353.06,-56.36"/>
<polygon fill="black" stroke="black" points="351.13,-59.3 361.13,-62.8 355.49,-53.82 351.13,-59.3"/>
<text text-anchor="middle" x="320.5" y="-46.8" font-family="Times,serif" font-size="14.00">8/12</text>
</g>
<!-- 5 -->
<g id="node3" class="node">
<title>5</title>
<ellipse fill="none" stroke="black" cx="499" cy="-108" rx="27" ry="18"/>
<text text-anchor="middle" x="499" y="-104.3" font-family="Times,serif" font-size="14.00">5</text>
</g>
<!-- 4&#45;&gt;5 -->
<g id="edge2" class="edge">
<title>4&#45;&gt;5</title>
<path fill="none" stroke="black" d="M403.37,-83.35C420.78,-87.88 444.43,-94.05 463.74,-99.07"/>
<polygon fill="black" stroke="black" points="463.1,-102.53 473.66,-101.66 464.87,-95.75 463.1,-102.53"/>
<text text-anchor="middle" x="438.5" y="-99.8" font-family="Times,serif" font-size="14.00">13/14</text>
</g>
<!-- 0 -->
<g id="node4" class="node">
<title>0</title>
<ellipse fill="none" stroke="black" cx="27" cy="-72" rx="27" ry="18"/>
<text text-anchor="middle" x="27" y="-68.3" font-family="Times,serif" font-size="14.00">0</text>
</g>
<!-- 0&#45;&gt;2 -->
<g id="edge3" class="edge">
<title>0&#45;&gt;2</title>
<path fill="none" stroke="black" d="M47.95,-60.58C66.31,-50.67 94.6,-36.87 121,-30 155.83,-20.94 196.98,-18.32 225.8,-17.73"/>
<polygon fill="black" stroke="black" points="225.87,-21.23 235.83,-17.6 225.78,-14.23 225.87,-21.23"/>
<text text-anchor="middle" x="148" y="-33.8" font-family="Times,serif" font-size="14.00">8/8</text>
</g>
<!-- 1 -->
<g id="node5" class="node">
<title>1</title>
<ellipse fill="none" stroke="black" cx="263" cy="-129" rx="27" ry="18"/>
<text text-anchor="middle" x="263" y="-125.3" font-family="Times,serif" font-size="14.00">1</text>
</g>
<!-- 0&#45;&gt;1 -->
<g id="edge4" class="edge">
<title>0&#45;&gt;1</title>
<path fill="none" stroke="black" d="M49.66,-82.19C56.69,-85.27 64.59,-88.5 72,-91 124.5,-108.71 138.48,-111.12 193,-121 203.59,-122.92 215.18,-124.47 225.79,-125.68"/>
<polygon fill="black" stroke="black" points="225.68,-129.19 236,-126.78 226.43,-122.23 225.68,-129.19"/>
<text text-anchor="middle" x="148" y="-120.8" font-family="Times,serif" font-size="14.00">7/7</text>
</g>
<!-- 3 -->
<g id="node6" class="node">
<title>3</title>
<ellipse fill="none" stroke="black" cx="148" cy="-72" rx="27" ry="18"/>
<text text-anchor="middle" x="148" y="-68.3" font-family="Times,serif" font-size="14.00">3</text>
</g>
<!-- 0&#45;&gt;3 -->
<g id="edge5" class="edge">
<title>0&#45;&gt;3</title>
<path fill="none" stroke="black" d="M54.12,-72C70.78,-72 92.61,-72 110.92,-72"/>
<polygon fill="black" stroke="black" points="110.95,-75.5 120.95,-72 110.95,-68.5 110.95,-75.5"/>
<text text-anchor="middle" x="87.5" y="-75.8" font-family="Times,serif" font-size="14.00">10/10</text>
</g>
<!-- 1&#45;&gt;4 -->
<g id="edge9" class="edge">
<title>1&#45;&gt;4</title>
<path fill="none" stroke="black" d="M284.41,-117.87C291.78,-113.98 300.2,-109.67 308,-106 319.94,-100.38 333.27,-94.66 345,-89.79"/>
<polygon fill="black" stroke="black" points="346.49,-92.97 354.42,-85.93 343.84,-86.49 346.49,-92.97"/>
<text text-anchor="middle" x="320.5" y="-109.8" font-family="Times,serif" font-size="14.00">0/1</text>
</g>
<!-- 1&#45;&gt;5 -->
<g id="edge10" class="edge">
<title>1&#45;&gt;5</title>
<path fill="none" stroke="black" d="M290.19,-127.77C326.89,-125.89 395.68,-121.78 454,-115 456.72,-114.68 459.52,-114.32 462.34,-113.93"/>
<polygon fill="black" stroke="black" points="463.08,-117.36 472.46,-112.44 462.05,-110.44 463.08,-117.36"/>
<text text-anchor="middle" x="378" y="-126.8" font-family="Times,serif" font-size="14.00">12/21</text>
</g>
<!-- 3&#45;&gt;2 -->
<g id="edge6" class="edge">
<title>3&#45;&gt;2</title>
<path fill="none" stroke="black" d="M166.83,-58.87C174.62,-53.5 184.01,-47.51 193,-43 204.19,-37.39 216.95,-32.4 228.43,-28.39"/>
<polygon fill="black" stroke="black" points="229.76,-31.63 238.11,-25.12 227.52,-25 229.76,-31.63"/>
<text text-anchor="middle" x="205.5" y="-46.8" font-family="Times,serif" font-size="14.00">0/2</text>
</g>
<!-- 3&#45;&gt;4 -->
<g id="edge7" class="edge">
<title>3&#45;&gt;4</title>
<path fill="none" stroke="black" d="M175.15,-72.57C215.85,-73.47 294.43,-75.19 340.63,-76.2"/>
<polygon fill="black" stroke="black" points="340.73,-79.71 350.8,-76.43 340.88,-72.71 340.73,-79.71"/>
<text text-anchor="middle" x="263" y="-78.8" font-family="Times,serif" font-size="14.00">5/5</text>
</g>
<!-- 3&#45;&gt;1 -->
<g id="edge8" class="edge">
<title>3&#45;&gt;1</title>
<path fill="none" stroke="black" d="M170.2,-82.29C183.89,-88.96 202.04,-97.9 218,-106 222.68,-108.38 227.63,-110.93 232.45,-113.43"/>
<polygon fill="black" stroke="black" points="230.97,-116.61 241.46,-118.13 234.21,-110.4 230.97,-116.61"/>
<text text-anchor="middle" x="205.5" y="-109.8" font-family="Times,serif" font-size="14.00">5/11</text>
</g>
</g>
</svg>
