<?xml version="1.0" encoding="UTF-8" standalone="no"?>
<!DOCTYPE svg PUBLIC "-//W3C//DTD SVG 1.1//EN"
 "http://www.w3.org/Graphics/SVG/1.1/DTD/svg11.dtd">
<!-- Generated by graphviz version 2.42.3 (20191010.1750)
 -->
<!-- Title: finite_state_machine Pages: 1 -->
<svg width="256pt" height="158pt"
 viewBox="0.00 0.00 256.00 158.00" xmlns="http://www.w3.org/2000/svg" xmlns:xlink="http://www.w3.org/1999/xlink">
<g id="graph0" class="graph" transform="scale(1 1) rotate(0) translate(4 154)">
<title>finite_state_machine</title>
<polygon fill="white" stroke="transparent" points="-4,4 -4,-154 252,-154 252,4 -4,4"/>
<!-- 1 -->
<g id="node1" class="node">
<title>1</title>
<ellipse fill="none" stroke="black" cx="27" cy="-75" rx="27" ry="18"/>
<text text-anchor="middle" x="27" y="-71.3" font-family="Times,serif" font-size="14.00">1</text>
</g>
<!-- 2 -->
<g id="node2" class="node">
<title>2</title>
<ellipse fill="none" stroke="black" cx="124" cy="-75" rx="27" ry="18"/>
<text text-anchor="middle" x="124" y="-71.3" font-family="Times,serif" font-size="14.00">2</text>
</g>
<!-- 1&#45;&gt;2 -->
<g id="edge1" class="edge">
<title>1&#45;&gt;2</title>
<path fill="none" stroke="black" d="M54.21,-75C64.28,-75 75.96,-75 86.81,-75"/>
<polygon fill="black" stroke="black" points="86.87,-78.5 96.87,-75 86.87,-71.5 86.87,-78.5"/>
<text text-anchor="middle" x="75.5" y="-78.8" font-family="Times,serif" font-size="14.00">3</text>
</g>
<!-- 3 -->
<g id="node3" class="node">
<title>3</title>
<ellipse fill="none" stroke="black" cx="221" cy="-132" rx="27" ry="18"/>
<text text-anchor="middle" x="221" y="-128.3" font-family="Times,serif" font-size="14.00">3</text>
</g>
<!-- 1&#45;&gt;3 -->
<g id="edge2" class="edge">
<title>1&#45;&gt;3</title>
<path fill="none" stroke="black" d="M48.24,-86.17C74.94,-100.2 123.86,-123.47 169,-132 173.8,-132.91 178.91,-133.42 183.96,-133.67"/>
<polygon fill="black" stroke="black" points="184.08,-137.18 194.14,-133.86 184.21,-130.18 184.08,-137.18"/>
<text text-anchor="middle" x="124" y="-130.8" font-family="Times,serif" font-size="14.00">1</text>
</g>
<!-- 2&#45;&gt;3 -->
<g id="edge5" class="edge">
<title>2&#45;&gt;3</title>
<path fill="none" stroke="black" d="M140.96,-89.39C149,-96.18 159.12,-104.08 169,-110 174.75,-113.45 181.15,-116.64 187.41,-119.47"/>
<polygon fill="black" stroke="black" points="186.45,-122.87 197.02,-123.6 189.21,-116.44 186.45,-122.87"/>
<text text-anchor="middle" x="172.5" y="-116.8" font-family="Times,serif" font-size="14.00">1</text>
</g>
<!-- 0 -->
<g id="node4" class="node">
<title>0</title>
<ellipse fill="none" stroke="black" cx="221" cy="-18" rx="27" ry="18"/>
<text text-anchor="middle" x="221" y="-14.3" font-family="Times,serif" font-size="14.00">0</text>
</g>
<!-- 2&#45;&gt;0 -->
<g id="edge6" class="edge">
<title>2&#45;&gt;0</title>
<path fill="none" stroke="black" d="M144.68,-63.19C158.19,-55.09 176.32,-44.21 191.41,-35.16"/>
<polygon fill="black" stroke="black" points="193.57,-37.94 200.34,-29.8 189.97,-31.94 193.57,-37.94"/>
<text text-anchor="middle" x="172.5" y="-51.8" font-family="Times,serif" font-size="14.00">4</text>
</g>
<!-- 3&#45;&gt;2 -->
<g id="edge7" class="edge">
<title>3&#45;&gt;2</title>
<path fill="none" stroke="black" d="M206.66,-116.54C198.55,-107.97 187.55,-97.72 176,-91 170.86,-88.01 165.1,-85.51 159.35,-83.45"/>
<polygon fill="black" stroke="black" points="160.39,-80.11 149.8,-80.38 158.25,-86.77 160.39,-80.11"/>
<text text-anchor="middle" x="172.5" y="-94.8" font-family="Times,serif" font-size="14.00">4</text>
</g>
<!-- 0&#45;&gt;1 -->
<g id="edge3" class="edge">
<title>0&#45;&gt;1</title>
<path fill="none" stroke="black" d="M194.79,-13.2C186.56,-12.25 177.37,-11.86 169,-13 136.09,-17.49 127.47,-19.8 97,-33 82.3,-39.37 66.97,-48.42 54.51,-56.49"/>
<polygon fill="black" stroke="black" points="52.39,-53.7 45.99,-62.14 56.26,-59.53 52.39,-53.7"/>
<text text-anchor="middle" x="124" y="-36.8" font-family="Times,serif" font-size="14.00">2</text>
</g>
<!-- 0&#45;&gt;2 -->
<g id="edge4" class="edge">
<title>0&#45;&gt;2</title>
<path fill="none" stroke="black" d="M194.58,-14.25C186.06,-14.08 176.77,-15.13 169,-19 156.08,-25.44 145.79,-37.66 138.42,-49.04"/>
<polygon fill="black" stroke="black" points="135.27,-47.49 133.14,-57.87 141.28,-51.08 135.27,-47.49"/>
<text text-anchor="middle" x="172.5" y="-22.8" font-family="Times,serif" font-size="14.00">0</text>
</g>
</g>
</svg>
