<?xml version="1.0" encoding="UTF-8" standalone="no"?>
<!DOCTYPE svg PUBLIC "-//W3C//DTD SVG 1.1//EN"
 "http://www.w3.org/Graphics/SVG/1.1/DTD/svg11.dtd">
<!-- Generated by graphviz version 2.42.3 (20191010.1750)
 -->
<!-- Title: finite_state_machine Pages: 1 -->
<svg width="362pt" height="122pt"
 viewBox="0.00 0.00 362.00 122.00" xmlns="http://www.w3.org/2000/svg" xmlns:xlink="http://www.w3.org/1999/xlink">
<g id="graph0" class="graph" transform="scale(1 1) rotate(0) translate(4 118)">
<title>finite_state_machine</title>
<polygon fill="white" stroke="transparent" points="-4,4 -4,-118 358,-118 358,4 -4,4"/>
<!-- 1 -->
<g id="node1" class="node">
<title>1</title>
<ellipse fill="none" stroke="black" cx="127" cy="-45" rx="27" ry="18"/>
<text text-anchor="middle" x="127" y="-41.3" font-family="Times,serif" font-size="14.00">1</text>
</g>
<!-- 3 -->
<g id="node2" class="node">
<title>3</title>
<ellipse fill="none" stroke="black" cx="227" cy="-96" rx="27" ry="18"/>
<text text-anchor="middle" x="227" y="-92.3" font-family="Times,serif" font-size="14.00">3</text>
</g>
<!-- 1&#45;&gt;3 -->
<g id="edge1" class="edge">
<title>1&#45;&gt;3</title>
<path fill="none" stroke="black" d="M148.78,-55.82C162.56,-62.98 180.84,-72.5 196.16,-80.47"/>
<polygon fill="black" stroke="black" points="194.76,-83.69 205.25,-85.2 197.99,-77.48 194.76,-83.69"/>
<text text-anchor="middle" x="177" y="-75.8" font-family="Times,serif" font-size="14.00">4</text>
</g>
<!-- 2 -->
<g id="node3" class="node">
<title>2</title>
<ellipse fill="none" stroke="black" cx="327" cy="-61" rx="27" ry="18"/>
<text text-anchor="middle" x="327" y="-57.3" font-family="Times,serif" font-size="14.00">2</text>
</g>
<!-- 1&#45;&gt;2 -->
<g id="edge2" class="edge">
<title>1&#45;&gt;2</title>
<path fill="none" stroke="black" d="M154.08,-46.67C179.57,-48.34 219.47,-51.09 254,-54 265.69,-54.99 278.43,-56.18 289.91,-57.31"/>
<polygon fill="black" stroke="black" points="289.72,-60.81 300.02,-58.31 290.41,-53.84 289.72,-60.81"/>
<text text-anchor="middle" x="227" y="-57.8" font-family="Times,serif" font-size="14.00">2</text>
</g>
<!-- 3&#45;&gt;2 -->
<g id="edge6" class="edge">
<title>3&#45;&gt;2</title>
<path fill="none" stroke="black" d="M253.87,-98.16C262.98,-98.12 273.16,-97.13 282,-94 289.43,-91.37 296.64,-87.01 303,-82.3"/>
<polygon fill="black" stroke="black" points="305.48,-84.8 311.09,-75.81 301.1,-79.34 305.48,-84.8"/>
<text text-anchor="middle" x="277" y="-99.8" font-family="Times,serif" font-size="14.00">3</text>
</g>
<!-- 2&#45;&gt;3 -->
<g id="edge5" class="edge">
<title>2&#45;&gt;3</title>
<path fill="none" stroke="black" d="M302.26,-68.65C292.81,-71.76 281.86,-75.46 272,-79 268.21,-80.36 264.25,-81.83 260.32,-83.31"/>
<polygon fill="black" stroke="black" points="258.85,-80.13 250.76,-86.97 261.35,-86.67 258.85,-80.13"/>
<text text-anchor="middle" x="277" y="-82.8" font-family="Times,serif" font-size="14.00">0</text>
</g>
<!-- 0 -->
<g id="node4" class="node">
<title>0</title>
<ellipse fill="none" stroke="black" cx="27" cy="-18" rx="27" ry="18"/>
<text text-anchor="middle" x="27" y="-14.3" font-family="Times,serif" font-size="14.00">0</text>
</g>
<!-- 0&#45;&gt;1 -->
<g id="edge4" class="edge">
<title>0&#45;&gt;1</title>
<path fill="none" stroke="black" d="M52.22,-24.67C64.24,-27.98 78.95,-32.04 92.07,-35.65"/>
<polygon fill="black" stroke="black" points="91.14,-39.03 101.71,-38.31 93,-32.28 91.14,-39.03"/>
<text text-anchor="middle" x="77" y="-35.8" font-family="Times,serif" font-size="14.00">0</text>
</g>
<!-- 0&#45;&gt;2 -->
<g id="edge3" class="edge">
<title>0&#45;&gt;2</title>
<path fill="none" stroke="black" d="M54.18,-16.14C79.74,-14.77 119.7,-13.78 154,-18 203,-24.03 258.13,-39.39 292.46,-50.01"/>
<polygon fill="black" stroke="black" points="291.83,-53.48 302.42,-53.14 293.93,-46.81 291.83,-53.48"/>
<text text-anchor="middle" x="177" y="-25.8" font-family="Times,serif" font-size="14.00">1</text>
</g>
</g>
</svg>
