<?xml version="1.0" encoding="UTF-8" standalone="no"?>
<!DOCTYPE svg PUBLIC "-//W3C//DTD SVG 1.1//EN"
 "http://www.w3.org/Graphics/SVG/1.1/DTD/svg11.dtd">
<!-- Generated by graphviz version 2.42.3 (20191010.1750)
 -->
<!-- Title: finite_state_machine Pages: 1 -->
<svg width="782pt" height="254pt"
 viewBox="0.00 0.00 782.00 254.00" xmlns="http://www.w3.org/2000/svg" xmlns:xlink="http://www.w3.org/1999/xlink">
<g id="graph0" class="graph" transform="scale(1 1) rotate(0) translate(4 250)">
<title>finite_state_machine</title>
<polygon fill="white" stroke="transparent" points="-4,4 -4,-250 778,-250 778,4 -4,4"/>
<!-- 6 -->
<g id="node1" class="node">
<title>6</title>
<ellipse fill="none" stroke="black" cx="387" cy="-18" rx="27" ry="18"/>
<text text-anchor="middle" x="387" y="-14.3" font-family="Times,serif" font-size="14.00">6</text>
</g>
<!-- 9 -->
<g id="node2" class="node">
<title>9</title>
<ellipse fill="none" stroke="black" cx="531" cy="-72" rx="27" ry="18"/>
<text text-anchor="middle" x="531" y="-68.3" font-family="Times,serif" font-size="14.00">9</text>
</g>
<!-- 6&#45;&gt;9 -->
<g id="edge1" class="edge">
<title>6&#45;&gt;9</title>
<path fill="none" stroke="black" d="M411.52,-25.92C431.47,-32.76 460.79,-43.07 486,-53 490.21,-54.66 494.61,-56.47 498.94,-58.29"/>
<polygon fill="black" stroke="black" points="497.61,-61.53 508.18,-62.25 500.37,-55.1 497.61,-61.53"/>
<text text-anchor="middle" x="459" y="-56.8" font-family="Times,serif" font-size="14.00">2/2</text>
</g>
<!-- 10 -->
<g id="node6" class="node">
<title>10</title>
<ellipse fill="none" stroke="black" cx="639" cy="-177" rx="27" ry="18"/>
<text text-anchor="middle" x="639" y="-173.3" font-family="Times,serif" font-size="14.00">10</text>
</g>
<!-- 9&#45;&gt;10 -->
<g id="edge18" class="edge">
<title>9&#45;&gt;10</title>
<path fill="none" stroke="black" d="M556.78,-77.75C569.07,-81.59 583.49,-87.68 594,-97 610.06,-111.24 621.44,-132.81 628.6,-149.96"/>
<polygon fill="black" stroke="black" points="625.42,-151.43 632.33,-159.46 631.93,-148.87 625.42,-151.43"/>
<text text-anchor="middle" x="585" y="-100.8" font-family="Times,serif" font-size="14.00">4/4</text>
</g>
<!-- 2 -->
<g id="node3" class="node">
<title>2</title>
<ellipse fill="none" stroke="black" cx="207" cy="-188" rx="27" ry="18"/>
<text text-anchor="middle" x="207" y="-184.3" font-family="Times,serif" font-size="14.00">2</text>
</g>
<!-- 5 -->
<g id="node4" class="node">
<title>5</title>
<ellipse fill="none" stroke="black" cx="387" cy="-186" rx="27" ry="18"/>
<text text-anchor="middle" x="387" y="-182.3" font-family="Times,serif" font-size="14.00">5</text>
</g>
<!-- 2&#45;&gt;5 -->
<g id="edge2" class="edge">
<title>2&#45;&gt;5</title>
<path fill="none" stroke="black" d="M234.26,-187.7C264.85,-187.36 315.55,-186.79 349.84,-186.41"/>
<polygon fill="black" stroke="black" points="349.96,-189.91 359.92,-186.29 349.88,-182.91 349.96,-189.91"/>
<text text-anchor="middle" x="279" y="-190.8" font-family="Times,serif" font-size="14.00">1/2</text>
</g>
<!-- 7 -->
<g id="node5" class="node">
<title>7</title>
<ellipse fill="none" stroke="black" cx="531" cy="-228" rx="27" ry="18"/>
<text text-anchor="middle" x="531" y="-224.3" font-family="Times,serif" font-size="14.00">7</text>
</g>
<!-- 5&#45;&gt;7 -->
<g id="edge3" class="edge">
<title>5&#45;&gt;7</title>
<path fill="none" stroke="black" d="M412.09,-193.12C435.14,-199.94 470.13,-210.29 496.02,-217.95"/>
<polygon fill="black" stroke="black" points="495.21,-221.36 505.79,-220.84 497.2,-214.65 495.21,-221.36"/>
<text text-anchor="middle" x="459" y="-217.8" font-family="Times,serif" font-size="14.00">1/1</text>
</g>
<!-- 5&#45;&gt;10 -->
<g id="edge4" class="edge">
<title>5&#45;&gt;10</title>
<path fill="none" stroke="black" d="M414.28,-185.05C459.11,-183.44 550.44,-180.15 601.45,-178.32"/>
<polygon fill="black" stroke="black" points="601.83,-181.8 611.7,-177.95 601.58,-174.81 601.83,-181.8"/>
<text text-anchor="middle" x="531" y="-184.8" font-family="Times,serif" font-size="14.00">1/1</text>
</g>
<!-- 7&#45;&gt;10 -->
<g id="edge5" class="edge">
<title>7&#45;&gt;10</title>
<path fill="none" stroke="black" d="M553.45,-217.68C568.97,-210.21 590.16,-200.02 607.44,-191.7"/>
<polygon fill="black" stroke="black" points="609.09,-194.79 616.58,-187.31 606.05,-188.49 609.09,-194.79"/>
<text text-anchor="middle" x="585" y="-208.8" font-family="Times,serif" font-size="14.00">0/1</text>
</g>
<!-- 12 -->
<g id="node7" class="node">
<title>12</title>
<ellipse fill="none" stroke="black" cx="747" cy="-209" rx="27" ry="18"/>
<text text-anchor="middle" x="747" y="-205.3" font-family="Times,serif" font-size="14.00">12</text>
</g>
<!-- 7&#45;&gt;12 -->
<g id="edge6" class="edge">
<title>7&#45;&gt;12</title>
<path fill="none" stroke="black" d="M557.96,-226.52C569.06,-225.84 582.17,-224.96 594,-224 633.72,-220.76 679.19,-216.15 709.96,-212.9"/>
<polygon fill="black" stroke="black" points="710.63,-216.35 720.21,-211.81 709.89,-209.39 710.63,-216.35"/>
<text text-anchor="middle" x="639" y="-225.8" font-family="Times,serif" font-size="14.00">1/2</text>
</g>
<!-- 10&#45;&gt;12 -->
<g id="edge19" class="edge">
<title>10&#45;&gt;12</title>
<path fill="none" stroke="black" d="M663.79,-184.18C678.01,-188.47 696.31,-194 712.03,-198.75"/>
<polygon fill="black" stroke="black" points="711.34,-202.19 721.92,-201.73 713.36,-195.49 711.34,-202.19"/>
<text text-anchor="middle" x="693" y="-197.8" font-family="Times,serif" font-size="14.00">6/6</text>
</g>
<!-- 4 -->
<g id="node8" class="node">
<title>4</title>
<ellipse fill="none" stroke="black" cx="459" cy="-127" rx="27" ry="18"/>
<text text-anchor="middle" x="459" y="-123.3" font-family="Times,serif" font-size="14.00">4</text>
</g>
<!-- 4&#45;&gt;10 -->
<g id="edge7" class="edge">
<title>4&#45;&gt;10</title>
<path fill="none" stroke="black" d="M486.23,-128.33C506.22,-129.86 534.27,-133.11 558,-140 575.48,-145.07 593.99,-153.42 608.79,-160.9"/>
<polygon fill="black" stroke="black" points="607.45,-164.15 617.94,-165.65 610.68,-157.94 607.45,-164.15"/>
<text text-anchor="middle" x="531" y="-143.8" font-family="Times,serif" font-size="14.00">1/2</text>
</g>
<!-- 0 -->
<g id="node9" class="node">
<title>0</title>
<ellipse fill="none" stroke="black" cx="27" cy="-127" rx="27" ry="18"/>
<text text-anchor="middle" x="27" y="-123.3" font-family="Times,serif" font-size="14.00">0</text>
</g>
<!-- 0&#45;&gt;2 -->
<g id="edge9" class="edge">
<title>0&#45;&gt;2</title>
<path fill="none" stroke="black" d="M51.27,-134.97C82.32,-145.61 137.48,-164.52 172.87,-176.65"/>
<polygon fill="black" stroke="black" points="172.13,-180.09 182.72,-180.02 174.4,-173.47 172.13,-180.09"/>
<text text-anchor="middle" x="81" y="-150.8" font-family="Times,serif" font-size="14.00">1/2</text>
</g>
<!-- 3 -->
<g id="node10" class="node">
<title>3</title>
<ellipse fill="none" stroke="black" cx="135" cy="-69" rx="27" ry="18"/>
<text text-anchor="middle" x="135" y="-65.3" font-family="Times,serif" font-size="14.00">3</text>
</g>
<!-- 0&#45;&gt;3 -->
<g id="edge8" class="edge">
<title>0&#45;&gt;3</title>
<path fill="none" stroke="black" d="M46.47,-113.97C54.2,-108.74 63.38,-102.82 72,-98 81.74,-92.55 92.69,-87.19 102.64,-82.59"/>
<polygon fill="black" stroke="black" points="104.14,-85.76 111.8,-78.44 101.25,-79.38 104.14,-85.76"/>
<text text-anchor="middle" x="81" y="-101.8" font-family="Times,serif" font-size="14.00">2/2</text>
</g>
<!-- 1 -->
<g id="node11" class="node">
<title>1</title>
<ellipse fill="none" stroke="black" cx="279" cy="-127" rx="27" ry="18"/>
<text text-anchor="middle" x="279" y="-123.3" font-family="Times,serif" font-size="14.00">1</text>
</g>
<!-- 0&#45;&gt;1 -->
<g id="edge10" class="edge">
<title>0&#45;&gt;1</title>
<path fill="none" stroke="black" d="M54.28,-127C99.11,-127 190.44,-127 241.45,-127"/>
<polygon fill="black" stroke="black" points="241.7,-130.5 251.7,-127 241.7,-123.5 241.7,-130.5"/>
<text text-anchor="middle" x="135" y="-130.8" font-family="Times,serif" font-size="14.00">4/4</text>
</g>
<!-- 3&#45;&gt;6 -->
<g id="edge14" class="edge">
<title>3&#45;&gt;6</title>
<path fill="none" stroke="black" d="M157.7,-59.06C180.61,-49.06 218.04,-34.14 252,-27 284.53,-20.16 322.39,-18.15 349.55,-17.71"/>
<polygon fill="black" stroke="black" points="349.8,-21.2 359.77,-17.61 349.73,-14.2 349.8,-21.2"/>
<text text-anchor="middle" x="279" y="-30.8" font-family="Times,serif" font-size="14.00">0/2</text>
</g>
<!-- 8 -->
<g id="node12" class="node">
<title>8</title>
<ellipse fill="none" stroke="black" cx="279" cy="-69" rx="27" ry="18"/>
<text text-anchor="middle" x="279" y="-65.3" font-family="Times,serif" font-size="14.00">8</text>
</g>
<!-- 3&#45;&gt;8 -->
<g id="edge15" class="edge">
<title>3&#45;&gt;8</title>
<path fill="none" stroke="black" d="M162.04,-69C184.32,-69 216.63,-69 241.49,-69"/>
<polygon fill="black" stroke="black" points="241.64,-72.5 251.64,-69 241.64,-65.5 241.64,-72.5"/>
<text text-anchor="middle" x="207" y="-72.8" font-family="Times,serif" font-size="14.00">2/2</text>
</g>
<!-- 1&#45;&gt;6 -->
<g id="edge13" class="edge">
<title>1&#45;&gt;6</title>
<path fill="none" stroke="black" d="M295.78,-112.69C308.61,-100.82 326.99,-83.31 342,-67 350.55,-57.7 351.61,-54.45 360,-45 361.33,-43.5 362.71,-41.98 364.12,-40.45"/>
<polygon fill="black" stroke="black" points="366.89,-42.61 371.2,-32.93 361.8,-37.81 366.89,-42.61"/>
<text text-anchor="middle" x="333" y="-88.8" font-family="Times,serif" font-size="14.00">2/2</text>
</g>
<!-- 1&#45;&gt;5 -->
<g id="edge11" class="edge">
<title>1&#45;&gt;5</title>
<path fill="none" stroke="black" d="M300.44,-138.38C316.42,-147.27 338.86,-159.76 356.74,-169.72"/>
<polygon fill="black" stroke="black" points="355.18,-172.85 365.62,-174.66 358.59,-166.74 355.18,-172.85"/>
<text text-anchor="middle" x="333" y="-163.8" font-family="Times,serif" font-size="14.00">1/2</text>
</g>
<!-- 1&#45;&gt;4 -->
<g id="edge12" class="edge">
<title>1&#45;&gt;4</title>
<path fill="none" stroke="black" d="M306.26,-127C336.85,-127 387.55,-127 421.84,-127"/>
<polygon fill="black" stroke="black" points="421.92,-130.5 431.92,-127 421.92,-123.5 421.92,-130.5"/>
<text text-anchor="middle" x="333" y="-130.8" font-family="Times,serif" font-size="14.00">1/2</text>
</g>
<!-- 11 -->
<g id="node13" class="node">
<title>11</title>
<ellipse fill="none" stroke="black" cx="387" cy="-72" rx="27" ry="18"/>
<text text-anchor="middle" x="387" y="-68.3" font-family="Times,serif" font-size="14.00">11</text>
</g>
<!-- 8&#45;&gt;11 -->
<g id="edge16" class="edge">
<title>8&#45;&gt;11</title>
<path fill="none" stroke="black" d="M300.81,-58.11C312.78,-53.16 328.15,-49 342,-52 346.77,-53.03 351.65,-54.63 356.33,-56.48"/>
<polygon fill="black" stroke="black" points="355.03,-59.73 365.59,-60.54 357.84,-53.32 355.03,-59.73"/>
<text text-anchor="middle" x="333" y="-55.8" font-family="Times,serif" font-size="14.00">2/2</text>
</g>
<!-- 11&#45;&gt;9 -->
<g id="edge17" class="edge">
<title>11&#45;&gt;9</title>
<path fill="none" stroke="black" d="M414.04,-72C436.32,-72 468.63,-72 493.49,-72"/>
<polygon fill="black" stroke="black" points="493.64,-75.5 503.64,-72 493.64,-68.5 493.64,-75.5"/>
<text text-anchor="middle" x="459" y="-75.8" font-family="Times,serif" font-size="14.00">2/2</text>
</g>
</g>
</svg>
