<?xml version="1.0" encoding="UTF-8" standalone="no"?>
<!DOCTYPE svg PUBLIC "-//W3C//DTD SVG 1.1//EN"
 "http://www.w3.org/Graphics/SVG/1.1/DTD/svg11.dtd">
<!-- Generated by graphviz version 2.42.3 (20191010.1750)
 -->
<!-- Title: finite_state_machine Pages: 1 -->
<svg width="353pt" height="86pt"
 viewBox="0.00 0.00 353.00 86.00" xmlns="http://www.w3.org/2000/svg" xmlns:xlink="http://www.w3.org/1999/xlink">
<g id="graph0" class="graph" transform="scale(1 1) rotate(0) translate(4 82)">
<title>finite_state_machine</title>
<polygon fill="white" stroke="transparent" points="-4,4 -4,-82 349,-82 349,4 -4,4"/>
<!-- 2 -->
<g id="node1" class="node">
<title>2</title>
<ellipse fill="none" stroke="black" cx="221" cy="-60" rx="27" ry="18"/>
<text text-anchor="middle" x="221" y="-56.3" font-family="Times,serif" font-size="14.00">2</text>
</g>
<!-- 3 -->
<g id="node2" class="node">
<title>3</title>
<ellipse fill="none" stroke="black" cx="318" cy="-25" rx="27" ry="18"/>
<text text-anchor="middle" x="318" y="-21.3" font-family="Times,serif" font-size="14.00">3</text>
</g>
<!-- 2&#45;&gt;3 -->
<g id="edge1" class="edge">
<title>2&#45;&gt;3</title>
<path fill="none" stroke="black" d="M245,-51.53C256.81,-47.17 271.41,-41.8 284.37,-37.02"/>
<polygon fill="black" stroke="black" points="285.71,-40.26 293.89,-33.52 283.29,-33.69 285.71,-40.26"/>
<text text-anchor="middle" x="269.5" y="-46.8" font-family="Times,serif" font-size="14.00">5</text>
</g>
<!-- 1 -->
<g id="node3" class="node">
<title>1</title>
<ellipse fill="none" stroke="black" cx="124" cy="-18" rx="27" ry="18"/>
<text text-anchor="middle" x="124" y="-14.3" font-family="Times,serif" font-size="14.00">1</text>
</g>
<!-- 1&#45;&gt;2 -->
<g id="edge2" class="edge">
<title>1&#45;&gt;2</title>
<path fill="none" stroke="black" d="M147.03,-27.74C159.38,-33.2 174.99,-40.1 188.6,-46.12"/>
<polygon fill="black" stroke="black" points="187.52,-49.47 198.09,-50.31 190.36,-43.07 187.52,-49.47"/>
<text text-anchor="middle" x="172.5" y="-43.8" font-family="Times,serif" font-size="14.00">3</text>
</g>
<!-- 1&#45;&gt;3 -->
<g id="edge3" class="edge">
<title>1&#45;&gt;3</title>
<path fill="none" stroke="black" d="M151.41,-17.23C176.33,-16.68 214.73,-16.32 248,-18 258.73,-18.54 270.37,-19.56 280.97,-20.65"/>
<polygon fill="black" stroke="black" points="280.84,-24.16 291.16,-21.75 281.6,-17.2 280.84,-24.16"/>
<text text-anchor="middle" x="221" y="-21.8" font-family="Times,serif" font-size="14.00">1</text>
</g>
<!-- 0 -->
<g id="node4" class="node">
<title>0</title>
<ellipse fill="none" stroke="black" cx="27" cy="-45" rx="27" ry="18"/>
<text text-anchor="middle" x="27" y="-41.3" font-family="Times,serif" font-size="14.00">0</text>
</g>
<!-- 0&#45;&gt;2 -->
<g id="edge5" class="edge">
<title>0&#45;&gt;2</title>
<path fill="none" stroke="black" d="M53.56,-48.76C59.6,-49.58 66.02,-50.38 72,-51 114.99,-55.48 125.84,-55.6 169,-58 173.78,-58.27 178.81,-58.51 183.78,-58.73"/>
<polygon fill="black" stroke="black" points="183.65,-62.22 193.78,-59.14 183.94,-55.23 183.65,-62.22"/>
<text text-anchor="middle" x="124" y="-60.8" font-family="Times,serif" font-size="14.00">4</text>
</g>
<!-- 0&#45;&gt;1 -->
<g id="edge4" class="edge">
<title>0&#45;&gt;1</title>
<path fill="none" stroke="black" d="M52.46,-38.05C63.63,-34.87 77.04,-31.06 89.15,-27.62"/>
<polygon fill="black" stroke="black" points="90.28,-30.94 98.95,-24.84 88.37,-24.2 90.28,-30.94"/>
<text text-anchor="middle" x="75.5" y="-35.8" font-family="Times,serif" font-size="14.00">2</text>
</g>
</g>
</svg>
