<?xml version="1.0" encoding="UTF-8" standalone="no"?>
<!DOCTYPE svg PUBLIC "-//W3C//DTD SVG 1.1//EN"
 "http://www.w3.org/Graphics/SVG/1.1/DTD/svg11.dtd">
<!-- Generated by graphviz version 2.42.3 (20191010.1750)
 -->
<!-- Title: finite_state_machine Pages: 1 -->
<svg width="386pt" height="86pt"
 viewBox="0.00 0.00 386.00 86.00" xmlns="http://www.w3.org/2000/svg" xmlns:xlink="http://www.w3.org/1999/xlink">
<g id="graph0" class="graph" transform="scale(1 1) rotate(0) translate(4 82)">
<title>finite_state_machine</title>
<polygon fill="white" stroke="transparent" points="-4,4 -4,-82 382,-82 382,4 -4,4"/>
<!-- 2 -->
<g id="node1" class="node">
<title>2</title>
<ellipse fill="none" stroke="black" cx="243" cy="-60" rx="27" ry="18"/>
<text text-anchor="middle" x="243" y="-56.3" font-family="Times,serif" font-size="14.00">2</text>
</g>
<!-- 3 -->
<g id="node2" class="node">
<title>3</title>
<ellipse fill="none" stroke="black" cx="351" cy="-25" rx="27" ry="18"/>
<text text-anchor="middle" x="351" y="-21.3" font-family="Times,serif" font-size="14.00">3</text>
</g>
<!-- 2&#45;&gt;3 -->
<g id="edge1" class="edge">
<title>2&#45;&gt;3</title>
<path fill="none" stroke="black" d="M267.52,-52.23C282.07,-47.43 300.96,-41.19 316.99,-35.9"/>
<polygon fill="black" stroke="black" points="318.14,-39.2 326.54,-32.75 315.95,-32.56 318.14,-39.2"/>
<text text-anchor="middle" x="297" y="-47.8" font-family="Times,serif" font-size="14.00">5/5</text>
</g>
<!-- 0 -->
<g id="node3" class="node">
<title>0</title>
<ellipse fill="none" stroke="black" cx="27" cy="-45" rx="27" ry="18"/>
<text text-anchor="middle" x="27" y="-41.3" font-family="Times,serif" font-size="14.00">0</text>
</g>
<!-- 0&#45;&gt;2 -->
<g id="edge2" class="edge">
<title>0&#45;&gt;2</title>
<path fill="none" stroke="black" d="M53.53,-49.52C59.57,-50.46 66,-51.36 72,-52 117.93,-56.92 171.16,-58.81 205.64,-59.54"/>
<polygon fill="black" stroke="black" points="205.65,-63.04 215.72,-59.73 205.78,-56.04 205.65,-63.04"/>
<text text-anchor="middle" x="135" y="-61.8" font-family="Times,serif" font-size="14.00">4/4</text>
</g>
<!-- 1 -->
<g id="node4" class="node">
<title>1</title>
<ellipse fill="none" stroke="black" cx="135" cy="-18" rx="27" ry="18"/>
<text text-anchor="middle" x="135" y="-14.3" font-family="Times,serif" font-size="14.00">1</text>
</g>
<!-- 0&#45;&gt;1 -->
<g id="edge3" class="edge">
<title>0&#45;&gt;1</title>
<path fill="none" stroke="black" d="M52.58,-38.74C66.63,-35.16 84.46,-30.62 99.85,-26.7"/>
<polygon fill="black" stroke="black" points="100.72,-30.09 109.55,-24.23 98.99,-23.3 100.72,-30.09"/>
<text text-anchor="middle" x="81" y="-36.8" font-family="Times,serif" font-size="14.00">2/2</text>
</g>
<!-- 1&#45;&gt;2 -->
<g id="edge4" class="edge">
<title>1&#45;&gt;2</title>
<path fill="none" stroke="black" d="M158.48,-26.91C173.42,-32.83 193.26,-40.69 209.85,-47.26"/>
<polygon fill="black" stroke="black" points="208.6,-50.53 219.19,-50.96 211.18,-44.02 208.6,-50.53"/>
<text text-anchor="middle" x="189" y="-44.8" font-family="Times,serif" font-size="14.00">1/3</text>
</g>
<!-- 1&#45;&gt;3 -->
<g id="edge5" class="edge">
<title>1&#45;&gt;3</title>
<path fill="none" stroke="black" d="M162.2,-17.32C189.23,-16.79 232.58,-16.37 270,-18 284.43,-18.63 300.28,-19.9 314.04,-21.18"/>
<polygon fill="black" stroke="black" points="313.81,-24.67 324.1,-22.16 314.48,-17.71 313.81,-24.67"/>
<text text-anchor="middle" x="243" y="-21.8" font-family="Times,serif" font-size="14.00">1/1</text>
</g>
</g>
</svg>
