<?xml version="1.0" encoding="UTF-8" standalone="no"?>
<!DOCTYPE svg PUBLIC "-//W3C//DTD SVG 1.1//EN"
 "http://www.w3.org/Graphics/SVG/1.1/DTD/svg11.dtd">
<!-- Generated by graphviz version 2.42.3 (20191010.1750)
 -->
<!-- Title: finite_state_machine Pages: 1 -->
<svg width="489pt" height="155pt"
 viewBox="0.00 0.00 489.00 155.00" xmlns="http://www.w3.org/2000/svg" xmlns:xlink="http://www.w3.org/1999/xlink">
<g id="graph0" class="graph" transform="scale(1 1) rotate(0) translate(4 151)">
<title>finite_state_machine</title>
<polygon fill="white" stroke="transparent" points="-4,4 -4,-151 485,-151 485,4 -4,4"/>
<!-- 4 -->
<g id="node1" class="node">
<title>4</title>
<ellipse fill="none" stroke="black" cx="345" cy="-77" rx="27" ry="18"/>
<text text-anchor="middle" x="345" y="-73.3" font-family="Times,serif" font-size="14.00">4</text>
</g>
<!-- 5 -->
<g id="node2" class="node">
<title>5</title>
<ellipse fill="none" stroke="black" cx="454" cy="-108" rx="27" ry="18"/>
<text text-anchor="middle" x="454" y="-104.3" font-family="Times,serif" font-size="14.00">5</text>
</g>
<!-- 4&#45;&gt;5 -->
<g id="edge1" class="edge">
<title>4&#45;&gt;5</title>
<path fill="none" stroke="black" d="M370.01,-83.96C384.47,-88.15 403.1,-93.54 419.05,-98.16"/>
<polygon fill="black" stroke="black" points="418.49,-101.65 429.07,-101.07 420.44,-94.92 418.49,-101.65"/>
<text text-anchor="middle" x="399.5" y="-97.8" font-family="Times,serif" font-size="14.00">14</text>
</g>
<!-- 1 -->
<g id="node3" class="node">
<title>1</title>
<ellipse fill="none" stroke="black" cx="236" cy="-129" rx="27" ry="18"/>
<text text-anchor="middle" x="236" y="-125.3" font-family="Times,serif" font-size="14.00">1</text>
</g>
<!-- 1&#45;&gt;4 -->
<g id="edge3" class="edge">
<title>1&#45;&gt;4</title>
<path fill="none" stroke="black" d="M257.48,-118.02C264.86,-114.14 273.26,-109.8 281,-106 291.24,-100.97 302.52,-95.69 312.68,-91.04"/>
<polygon fill="black" stroke="black" points="314.35,-94.13 322.01,-86.8 311.45,-87.75 314.35,-94.13"/>
<text text-anchor="middle" x="290.5" y="-109.8" font-family="Times,serif" font-size="14.00">12</text>
</g>
<!-- 1&#45;&gt;5 -->
<g id="edge2" class="edge">
<title>1&#45;&gt;5</title>
<path fill="none" stroke="black" d="M262.95,-126.75C296.64,-123.8 357.24,-118.35 409,-113 411.54,-112.74 414.17,-112.46 416.81,-112.17"/>
<polygon fill="black" stroke="black" points="417.4,-115.63 426.95,-111.05 416.63,-108.67 417.4,-115.63"/>
<text text-anchor="middle" x="345" y="-124.8" font-family="Times,serif" font-size="14.00">13</text>
</g>
<!-- 2 -->
<g id="node4" class="node">
<title>2</title>
<ellipse fill="none" stroke="black" cx="236" cy="-18" rx="27" ry="18"/>
<text text-anchor="middle" x="236" y="-14.3" font-family="Times,serif" font-size="14.00">2</text>
</g>
<!-- 2&#45;&gt;4 -->
<g id="edge4" class="edge">
<title>2&#45;&gt;4</title>
<path fill="none" stroke="black" d="M260.76,-25.64C272.88,-29.98 287.63,-35.95 300,-43 306.8,-46.88 313.72,-51.71 319.98,-56.51"/>
<polygon fill="black" stroke="black" points="318.05,-59.44 328.06,-62.93 322.41,-53.96 318.05,-59.44"/>
<text text-anchor="middle" x="290.5" y="-46.8" font-family="Times,serif" font-size="14.00">8</text>
</g>
<!-- 0 -->
<g id="node5" class="node">
<title>0</title>
<ellipse fill="none" stroke="black" cx="27" cy="-72" rx="27" ry="18"/>
<text text-anchor="middle" x="27" y="-68.3" font-family="Times,serif" font-size="14.00">0</text>
</g>
<!-- 0&#45;&gt;1 -->
<g id="edge5" class="edge">
<title>0&#45;&gt;1</title>
<path fill="none" stroke="black" d="M49.73,-81.98C56.77,-85.05 64.65,-88.32 72,-91 115.6,-106.89 126.61,-111.38 172,-121 180.68,-122.84 190.13,-124.31 199.01,-125.47"/>
<polygon fill="black" stroke="black" points="198.74,-128.96 209.09,-126.68 199.58,-122.01 198.74,-128.96"/>
<text text-anchor="middle" x="127" y="-119.8" font-family="Times,serif" font-size="14.00">7</text>
</g>
<!-- 0&#45;&gt;2 -->
<g id="edge7" class="edge">
<title>0&#45;&gt;2</title>
<path fill="none" stroke="black" d="M45.59,-58.75C59.56,-49 80.01,-36.37 100,-30 132.4,-19.68 171.25,-17.19 198.94,-16.97"/>
<polygon fill="black" stroke="black" points="198.96,-20.47 208.96,-16.99 198.97,-13.47 198.96,-20.47"/>
<text text-anchor="middle" x="127" y="-33.8" font-family="Times,serif" font-size="14.00">5</text>
</g>
<!-- 3 -->
<g id="node6" class="node">
<title>3</title>
<ellipse fill="none" stroke="black" cx="127" cy="-72" rx="27" ry="18"/>
<text text-anchor="middle" x="127" y="-68.3" font-family="Times,serif" font-size="14.00">3</text>
</g>
<!-- 0&#45;&gt;3 -->
<g id="edge6" class="edge">
<title>0&#45;&gt;3</title>
<path fill="none" stroke="black" d="M54,-72C64.97,-72 77.92,-72 89.79,-72"/>
<polygon fill="black" stroke="black" points="89.87,-75.5 99.87,-72 89.87,-68.5 89.87,-75.5"/>
<text text-anchor="middle" x="77" y="-75.8" font-family="Times,serif" font-size="14.00">6</text>
</g>
<!-- 3&#45;&gt;4 -->
<g id="edge9" class="edge">
<title>3&#45;&gt;4</title>
<path fill="none" stroke="black" d="M154.05,-72.6C192.41,-73.49 264.21,-75.15 307.71,-76.16"/>
<polygon fill="black" stroke="black" points="307.77,-79.66 317.85,-76.39 307.94,-72.66 307.77,-79.66"/>
<text text-anchor="middle" x="236" y="-78.8" font-family="Times,serif" font-size="14.00">9</text>
</g>
<!-- 3&#45;&gt;1 -->
<g id="edge8" class="edge">
<title>3&#45;&gt;1</title>
<path fill="none" stroke="black" d="M148.63,-82.99C164.77,-91.59 187.41,-103.65 205.47,-113.27"/>
<polygon fill="black" stroke="black" points="203.96,-116.43 214.43,-118.04 207.25,-110.25 203.96,-116.43"/>
<text text-anchor="middle" x="181.5" y="-106.8" font-family="Times,serif" font-size="14.00">11</text>
</g>
<!-- 3&#45;&gt;2 -->
<g id="edge10" class="edge">
<title>3&#45;&gt;2</title>
<path fill="none" stroke="black" d="M145.9,-59C153.7,-53.66 163.07,-47.65 172,-43 181.55,-38.03 192.32,-33.41 202.22,-29.54"/>
<polygon fill="black" stroke="black" points="203.64,-32.74 211.75,-25.93 201.16,-26.2 203.64,-32.74"/>
<text text-anchor="middle" x="181.5" y="-46.8" font-family="Times,serif" font-size="14.00">15</text>
</g>
</g>
</svg>
