<?xml version="1.0" encoding="UTF-8" standalone="no"?>
<!DOCTYPE svg PUBLIC "-//W3C//DTD SVG 1.1//EN"
 "http://www.w3.org/Graphics/SVG/1.1/DTD/svg11.dtd">
<!-- Generated by graphviz version 2.42.3 (20191010.1750)
 -->
<!-- Title: finite_state_machine Pages: 1 -->
<svg width="691pt" height="272pt"
 viewBox="0.00 0.00 691.00 272.00" xmlns="http://www.w3.org/2000/svg" xmlns:xlink="http://www.w3.org/1999/xlink">
<g id="graph0" class="graph" transform="scale(1 1) rotate(0) translate(4 268)">
<title>finite_state_machine</title>
<polygon fill="white" stroke="transparent" points="-4,4 -4,-268 687,-268 687,4 -4,4"/>
<!-- 7 -->
<g id="node1" class="node">
<title>7</title>
<ellipse fill="none" stroke="black" cx="365" cy="-161" rx="27" ry="18"/>
<text text-anchor="middle" x="365" y="-157.3" font-family="Times,serif" font-size="14.00">7</text>
</g>
<!-- 10 -->
<g id="node2" class="node">
<title>10</title>
<ellipse fill="none" stroke="black" cx="559" cy="-158" rx="27" ry="18"/>
<text text-anchor="middle" x="559" y="-154.3" font-family="Times,serif" font-size="14.00">10</text>
</g>
<!-- 7&#45;&gt;10 -->
<g id="edge1" class="edge">
<title>7&#45;&gt;10</title>
<path fill="none" stroke="black" d="M392.29,-160.59C425.81,-160.07 483.91,-159.16 521.65,-158.57"/>
<polygon fill="black" stroke="black" points="521.77,-162.07 531.72,-158.41 521.66,-155.07 521.77,-162.07"/>
<text text-anchor="middle" x="462" y="-162.8" font-family="Times,serif" font-size="14.00">1</text>
</g>
<!-- 12 -->
<g id="node3" class="node">
<title>12</title>
<ellipse fill="none" stroke="black" cx="656" cy="-181" rx="27" ry="18"/>
<text text-anchor="middle" x="656" y="-177.3" font-family="Times,serif" font-size="14.00">12</text>
</g>
<!-- 7&#45;&gt;12 -->
<g id="edge2" class="edge">
<title>7&#45;&gt;12</title>
<path fill="none" stroke="black" d="M389.6,-168.58C396.16,-170.52 403.32,-172.49 410,-174 420.97,-176.49 423.82,-176.7 435,-178 509.77,-186.66 528.76,-186.91 604,-189 607.11,-189.09 607.9,-189.28 611,-189 613.9,-188.74 616.89,-188.38 619.89,-187.96"/>
<polygon fill="black" stroke="black" points="620.65,-191.39 629.98,-186.35 619.55,-184.47 620.65,-191.39"/>
<text text-anchor="middle" x="510.5" y="-188.8" font-family="Times,serif" font-size="14.00">2</text>
</g>
<!-- 10&#45;&gt;12 -->
<g id="edge11" class="edge">
<title>10&#45;&gt;12</title>
<path fill="none" stroke="black" d="M584.96,-164.04C595.76,-166.66 608.58,-169.76 620.29,-172.6"/>
<polygon fill="black" stroke="black" points="619.66,-176.05 630.21,-175 621.31,-169.24 619.66,-176.05"/>
<text text-anchor="middle" x="607.5" y="-173.8" font-family="Times,serif" font-size="14.00">6</text>
</g>
<!-- 5 -->
<g id="node4" class="node">
<title>5</title>
<ellipse fill="none" stroke="black" cx="221" cy="-141" rx="27" ry="18"/>
<text text-anchor="middle" x="221" y="-137.3" font-family="Times,serif" font-size="14.00">5</text>
</g>
<!-- 5&#45;&gt;7 -->
<g id="edge3" class="edge">
<title>5&#45;&gt;7</title>
<path fill="none" stroke="black" d="M247.72,-144.62C270.23,-147.79 303.18,-152.43 328.26,-155.97"/>
<polygon fill="black" stroke="black" points="328.09,-159.48 338.48,-157.41 329.06,-152.54 328.09,-159.48"/>
<text text-anchor="middle" x="293" y="-157.8" font-family="Times,serif" font-size="14.00">1</text>
</g>
<!-- 5&#45;&gt;10 -->
<g id="edge4" class="edge">
<title>5&#45;&gt;10</title>
<path fill="none" stroke="black" d="M248.24,-138.96C271.74,-137.25 307.15,-134.93 338,-134 361.99,-133.28 368.06,-132.28 392,-134 437.34,-137.26 489.11,-145.47 522.61,-151.38"/>
<polygon fill="black" stroke="black" points="522.35,-154.89 532.81,-153.21 523.59,-148 522.35,-154.89"/>
<text text-anchor="middle" x="413.5" y="-139.8" font-family="Times,serif" font-size="14.00">1</text>
</g>
<!-- 9 -->
<g id="node5" class="node">
<title>9</title>
<ellipse fill="none" stroke="black" cx="462" cy="-69" rx="27" ry="18"/>
<text text-anchor="middle" x="462" y="-65.3" font-family="Times,serif" font-size="14.00">9</text>
</g>
<!-- 9&#45;&gt;10 -->
<g id="edge5" class="edge">
<title>9&#45;&gt;10</title>
<path fill="none" stroke="black" d="M488.34,-73.7C497.13,-76.25 506.62,-80.13 514,-86 528.76,-97.75 539.81,-115.9 547.14,-131.03"/>
<polygon fill="black" stroke="black" points="544.1,-132.8 551.42,-140.45 550.47,-129.9 544.1,-132.8"/>
<text text-anchor="middle" x="510.5" y="-89.8" font-family="Times,serif" font-size="14.00">4</text>
</g>
<!-- 11 -->
<g id="node6" class="node">
<title>11</title>
<ellipse fill="none" stroke="black" cx="365" cy="-18" rx="27" ry="18"/>
<text text-anchor="middle" x="365" y="-14.3" font-family="Times,serif" font-size="14.00">11</text>
</g>
<!-- 11&#45;&gt;9 -->
<g id="edge6" class="edge">
<title>11&#45;&gt;9</title>
<path fill="none" stroke="black" d="M387.53,-28.09C396.7,-32.51 407.45,-37.85 417,-43 422.08,-45.74 427.41,-48.76 432.55,-51.75"/>
<polygon fill="black" stroke="black" points="431.08,-54.95 441.47,-57.02 434.64,-48.92 431.08,-54.95"/>
<text text-anchor="middle" x="413.5" y="-46.8" font-family="Times,serif" font-size="14.00">2</text>
</g>
<!-- 8 -->
<g id="node7" class="node">
<title>8</title>
<ellipse fill="none" stroke="black" cx="221" cy="-18" rx="27" ry="18"/>
<text text-anchor="middle" x="221" y="-14.3" font-family="Times,serif" font-size="14.00">8</text>
</g>
<!-- 8&#45;&gt;11 -->
<g id="edge7" class="edge">
<title>8&#45;&gt;11</title>
<path fill="none" stroke="black" d="M248.04,-18C270.32,-18 302.63,-18 327.49,-18"/>
<polygon fill="black" stroke="black" points="327.64,-21.5 337.64,-18 327.64,-14.5 327.64,-21.5"/>
<text text-anchor="middle" x="293" y="-21.8" font-family="Times,serif" font-size="14.00">2</text>
</g>
<!-- 6 -->
<g id="node8" class="node">
<title>6</title>
<ellipse fill="none" stroke="black" cx="221" cy="-72" rx="27" ry="18"/>
<text text-anchor="middle" x="221" y="-68.3" font-family="Times,serif" font-size="14.00">6</text>
</g>
<!-- 6&#45;&gt;9 -->
<g id="edge8" class="edge">
<title>6&#45;&gt;9</title>
<path fill="none" stroke="black" d="M248.03,-71.67C290.86,-71.14 376.28,-70.06 424.92,-69.45"/>
<polygon fill="black" stroke="black" points="425.04,-72.95 435,-69.33 424.96,-65.95 425.04,-72.95"/>
<text text-anchor="middle" x="365" y="-74.8" font-family="Times,serif" font-size="14.00">2</text>
</g>
<!-- 3 -->
<g id="node9" class="node">
<title>3</title>
<ellipse fill="none" stroke="black" cx="124" cy="-62" rx="27" ry="18"/>
<text text-anchor="middle" x="124" y="-58.3" font-family="Times,serif" font-size="14.00">3</text>
</g>
<!-- 3&#45;&gt;8 -->
<g id="edge9" class="edge">
<title>3&#45;&gt;8</title>
<path fill="none" stroke="black" d="M146.56,-52.02C159.1,-46.21 175.13,-38.78 189,-32.36"/>
<polygon fill="black" stroke="black" points="190.6,-35.48 198.2,-28.1 187.65,-29.12 190.6,-35.48"/>
<text text-anchor="middle" x="172.5" y="-45.8" font-family="Times,serif" font-size="14.00">2</text>
</g>
<!-- 3&#45;&gt;6 -->
<g id="edge10" class="edge">
<title>3&#45;&gt;6</title>
<path fill="none" stroke="black" d="M150.96,-64.73C161.12,-65.8 172.94,-67.05 183.91,-68.2"/>
<polygon fill="black" stroke="black" points="183.76,-71.7 194.07,-69.27 184.49,-64.74 183.76,-71.7"/>
<text text-anchor="middle" x="172.5" y="-71.8" font-family="Times,serif" font-size="14.00">2</text>
</g>
<!-- 2 -->
<g id="node10" class="node">
<title>2</title>
<ellipse fill="none" stroke="black" cx="124" cy="-116" rx="27" ry="18"/>
<text text-anchor="middle" x="124" y="-112.3" font-family="Times,serif" font-size="14.00">2</text>
</g>
<!-- 2&#45;&gt;5 -->
<g id="edge12" class="edge">
<title>2&#45;&gt;5</title>
<path fill="none" stroke="black" d="M149.52,-109.74C158.05,-108.56 167.58,-108.4 176,-111 182.89,-113.12 189.66,-116.74 195.75,-120.73"/>
<polygon fill="black" stroke="black" points="193.94,-123.75 204.11,-126.73 198.03,-118.06 193.94,-123.75"/>
<text text-anchor="middle" x="172.5" y="-114.8" font-family="Times,serif" font-size="14.00">2</text>
</g>
<!-- 4 -->
<g id="node11" class="node">
<title>4</title>
<ellipse fill="none" stroke="black" cx="293" cy="-239" rx="27" ry="18"/>
<text text-anchor="middle" x="293" y="-235.3" font-family="Times,serif" font-size="14.00">4</text>
</g>
<!-- 4&#45;&gt;10 -->
<g id="edge13" class="edge">
<title>4&#45;&gt;10</title>
<path fill="none" stroke="black" d="M319.13,-243.84C362.24,-250.77 451.67,-259.03 514,-223 528.86,-214.41 539.75,-198.54 546.97,-184.63"/>
<polygon fill="black" stroke="black" points="550.22,-185.96 551.4,-175.43 543.91,-182.93 550.22,-185.96"/>
<text text-anchor="middle" x="413.5" y="-252.8" font-family="Times,serif" font-size="14.00">2</text>
</g>
<!-- 1 -->
<g id="node12" class="node">
<title>1</title>
<ellipse fill="none" stroke="black" cx="124" cy="-178" rx="27" ry="18"/>
<text text-anchor="middle" x="124" y="-174.3" font-family="Times,serif" font-size="14.00">1</text>
</g>
<!-- 1&#45;&gt;5 -->
<g id="edge14" class="edge">
<title>1&#45;&gt;5</title>
<path fill="none" stroke="black" d="M149.73,-172.35C158.19,-170.12 167.63,-167.29 176,-164 180.89,-162.08 185.94,-159.77 190.81,-157.36"/>
<polygon fill="black" stroke="black" points="192.55,-160.4 199.83,-152.7 189.34,-154.18 192.55,-160.4"/>
<text text-anchor="middle" x="172.5" y="-169.8" font-family="Times,serif" font-size="14.00">2</text>
</g>
<!-- 1&#45;&gt;6 -->
<g id="edge15" class="edge">
<title>1&#45;&gt;6</title>
<path fill="none" stroke="black" d="M140.1,-163.33C150.46,-153.1 164.37,-139.01 176,-126 184.6,-116.38 193.68,-105.39 201.34,-95.85"/>
<polygon fill="black" stroke="black" points="204.17,-97.92 207.66,-87.91 198.7,-93.56 204.17,-97.92"/>
<text text-anchor="middle" x="172.5" y="-136.8" font-family="Times,serif" font-size="14.00">2</text>
</g>
<!-- 1&#45;&gt;4 -->
<g id="edge16" class="edge">
<title>1&#45;&gt;4</title>
<path fill="none" stroke="black" d="M148.22,-186.48C177.14,-197.04 226.7,-215.15 259.41,-227.1"/>
<polygon fill="black" stroke="black" points="258.38,-230.45 268.98,-230.59 260.78,-223.87 258.38,-230.45"/>
<text text-anchor="middle" x="172.5" y="-198.8" font-family="Times,serif" font-size="14.00">2</text>
</g>
<!-- 0 -->
<g id="node13" class="node">
<title>0</title>
<ellipse fill="none" stroke="black" cx="27" cy="-116" rx="27" ry="18"/>
<text text-anchor="middle" x="27" y="-112.3" font-family="Times,serif" font-size="14.00">0</text>
</g>
<!-- 0&#45;&gt;3 -->
<g id="edge19" class="edge">
<title>0&#45;&gt;3</title>
<path fill="none" stroke="black" d="M48.15,-104.55C61.5,-96.96 79.22,-86.88 94.07,-78.44"/>
<polygon fill="black" stroke="black" points="95.92,-81.42 102.88,-73.44 92.46,-75.33 95.92,-81.42"/>
<text text-anchor="middle" x="75.5" y="-93.8" font-family="Times,serif" font-size="14.00">2</text>
</g>
<!-- 0&#45;&gt;2 -->
<g id="edge18" class="edge">
<title>0&#45;&gt;2</title>
<path fill="none" stroke="black" d="M54.21,-116C64.28,-116 75.96,-116 86.81,-116"/>
<polygon fill="black" stroke="black" points="86.87,-119.5 96.87,-116 86.87,-112.5 86.87,-119.5"/>
<text text-anchor="middle" x="75.5" y="-119.8" font-family="Times,serif" font-size="14.00">2</text>
</g>
<!-- 0&#45;&gt;1 -->
<g id="edge17" class="edge">
<title>0&#45;&gt;1</title>
<path fill="none" stroke="black" d="M47.22,-128.55C61.09,-137.6 80.02,-149.95 95.49,-160.04"/>
<polygon fill="black" stroke="black" points="93.84,-163.15 104.13,-165.68 97.67,-157.29 93.84,-163.15"/>
<text text-anchor="middle" x="75.5" y="-151.8" font-family="Times,serif" font-size="14.00">4</text>
</g>
</g>
</svg>
